# xmcd
#
# Track frame offsets: 
#        150
#        13987
#        31344
#        48120
#        61582
#        78550
#        94572
#        109182
#        123905
#        138975
#        154930
#        170000
#        188257
#        201687
#        218222
#
# Disc length: 3273 seconds
#
# Revision: 0
# Processed by: cddbd v1.5.2PL0 Copyright (c) Steve Scherf et al.
# Submitted via: ExactAudioCopy v0.99pb4
#
DISCID=c80cc70f
DTITLE=Todd Dereemer - Wind Rivers
DYEAR=1998
DGENRE=Country
TTITLE0=Wind Rivers (Amy's Song)
TTITLE1=I Can't Express Myself
TTITLE2=King Midas
TTITLE3=Twenty Nine
TTITLE4=Talk About The Fire
TTITLE5=Connect The Dots
TTITLE6=We Don't Like To Buy Anything New
TTITLE7=Haven't You Been There
TTITLE8=Bad To Worse
TTITLE9=She Don't Wear No Glasses
TTITLE10=Publishers Clearing House
TTITLE11=Sometimes The bad Guys Wear White
TTITLE12=You're The One I Always Wanted
TTITLE13=Hangin' On By A Thread
TTITLE14=Better Late Than Never
EXTD=
EXTT0=
EXTT1=
EXTT2=
EXTT3=
EXTT4=
EXTT5=
EXTT6=
EXTT7=
EXTT8=
EXTT9=
EXTT10=
EXTT11=
EXTT12=
EXTT13=
EXTT14=
PLAYORDER=
